<svg xmlns="http://www.w3.org/2000/svg" xmlns:xlink="http://www.w3.org/1999/xlink" id="Layer_1" width="1600" height="345px" viewBox="0 0 1600 345">
    <style>
        .st0{opacity:.35;enable-background:new}.st1{clip-path:url(#SVGID_2_)}.st2{stroke:url(#SVGID_3_);stroke-width:1.7205}.st2,.st3,.st4,.st5{fill:none;stroke-miterlimit:10}.st3{stroke:url(#SVGID_4_);stroke-width:1.6963}.st4{stroke:url(#SVGID_5_);stroke-width:1.6686}.st5{stroke:url(#SVGID_6_);stroke-width:1.6444}.st10,.st11{fill:none;stroke-miterlimit:10}.st6{stroke:url(#SVGID_7_);stroke-width:1.6167}.st6,.st7,.st8,.st9{fill:none;stroke-miterlimit:10}.st7{stroke:url(#SVGID_8_);stroke-width:1.589}.st8{stroke:url(#SVGID_9_);stroke-width:1.5647}.st9{stroke:url(#SVGID_10_);stroke-width:1.537}.st10{stroke:url(#SVGID_11_);stroke-width:1.5128}.st11{stroke:url(#SVGID_12_);stroke-width:1.4851}.st12{stroke:url(#SVGID_13_);stroke-width:1.4609}.st12,.st13,.st14,.st15,.st16,.st17{fill:none;stroke-miterlimit:10}.st13{stroke:url(#SVGID_14_);stroke-width:1.4332}.st14{stroke:url(#SVGID_15_);stroke-width:1.409}.st15{stroke:url(#SVGID_16_);stroke-width:1.3813}.st16{stroke:url(#SVGID_17_);stroke-width:1.357}.st17{stroke:url(#SVGID_18_);stroke-width:1.3293}.st18{stroke:url(#SVGID_19_);stroke-width:1.3051}.st18,.st19,.st20,.st21,.st22,.st23{fill:none;stroke-miterlimit:10}.st19{stroke:url(#SVGID_20_);stroke-width:1.2774}.st20{stroke:url(#SVGID_21_);stroke-width:1.2532}.st21{stroke:url(#SVGID_22_);stroke-width:1.2255}.st22{stroke:url(#SVGID_23_);stroke-width:1.1978}.st23{stroke:url(#SVGID_24_);stroke-width:1.1736}.st24{stroke:url(#SVGID_25_);stroke-width:1.1459}.st24,.st25,.st26,.st27,.st28,.st29{fill:none;stroke-miterlimit:10}.st25{stroke:url(#SVGID_26_);stroke-width:1.1216}.st26{stroke:url(#SVGID_27_);stroke-width:1.0939}.st27{stroke:url(#SVGID_28_);stroke-width:1.0697}.st28{stroke:url(#SVGID_29_);stroke-width:1.042}.st29{stroke:url(#SVGID_30_);stroke-width:1.0178}.st30{stroke:url(#SVGID_31_);stroke-width:.9901}.st30,.st31,.st32,.st33,.st34,.st35{fill:none;stroke-miterlimit:10}.st31{stroke:url(#SVGID_32_);stroke-width:.9658}.st32{stroke:url(#SVGID_33_);stroke-width:.9381}.st33{stroke:url(#SVGID_34_);stroke-width:.9139}.st34{stroke:url(#SVGID_35_);stroke-width:.8862}.st35{stroke:url(#SVGID_36_);stroke-width:.862}.st36{fill:url(#SVGID_37_)}
    </style>
    <g class="st0">
        <defs>
            <path id="SVGID_1_" d="M0 0h1600v345H0z"/>
        </defs>
        <clipPath id="SVGID_2_">
            <use overflow="visible" xlink:href="#SVGID_1_"/>
        </clipPath>
        <g class="st1">
            <linearGradient id="SVGID_3_" x1="801.681" x2="615.366" y1="1792.916" y2="859" gradientTransform="matrix(1 0 0 -1 0 1268.857)" gradientUnits="userSpaceOnUse">
                <stop offset="0" stop-color="#39b54a"/>
                <stop offset="1" stop-color="#00aeef"/>
            </linearGradient>
            <path d="M-124.8 121.6L147.1-22.9l461.2 430.2 960.3-777.8" class="st2"/>
            <linearGradient id="SVGID_4_" x1="802.357" x2="623.04" y1="1767.181" y2="868.335" gradientTransform="matrix(1 0 0 -1 0 1268.857)" gradientUnits="userSpaceOnUse">
                <stop offset="0" stop-color="#39b54a"/>
                <stop offset="1" stop-color="#00aeef"/>
            </linearGradient>
            <path d="M-124.7 127.7L157.7-18.1l465.8 417.6 950.1-743.4" class="st3"/>
            <linearGradient id="SVGID_5_" x1="803.03" x2="630.687" y1="1741.529" y2="877.657" gradientTransform="matrix(1 0 0 -1 0 1268.857)" gradientUnits="userSpaceOnUse">
                <stop offset="0" stop-color="#39b54a"/>
                <stop offset="1" stop-color="#00aeef"/>
            </linearGradient>
            <path d="M-124.5 133.7l292.7-147 470.4 405 939.9-709.1" class="st4"/>
            <linearGradient id="SVGID_6_" x1="803.705" x2="638.336" y1="1715.795" y2="886.876" gradientTransform="matrix(1 0 0 -1 0 1268.857)" gradientUnits="userSpaceOnUse">
                <stop offset="0" stop-color="#39b54a"/>
                <stop offset="1" stop-color="#00aeef"/>
            </linearGradient>
            <path d="M-124.4 139.8L178.7-8.5l475 392.5 929.8-674.8" class="st5"/>
            <linearGradient id="SVGID_7_" x1="804.318" x2="645.946" y1="1690.052" y2="896.203" gradientTransform="matrix(1 0 0 -1 0 1268.857)" gradientUnits="userSpaceOnUse">
                <stop offset="0" stop-color="#39b54a"/>
                <stop offset="1" stop-color="#00aeef"/>
            </linearGradient>
            <path d="M-124.3 145.8L189.3-3.7l479.5 379.9 919.6-640.4" class="st6"/>
            <linearGradient id="SVGID_8_" x1="804.991" x2="653.617" y1="1664.315" y2="905.538" gradientTransform="matrix(1 0 0 -1 0 1268.857)" gradientUnits="userSpaceOnUse">
                <stop offset="0" stop-color="#39b54a"/>
                <stop offset="1" stop-color="#00aeef"/>
            </linearGradient>
            <path d="M-124.2 151.9l324-150.8L684 368.4l909.4-606" class="st7"/>
            <linearGradient id="SVGID_9_" x1="805.657" x2="661.272" y1="1638.586" y2="914.852" gradientTransform="matrix(1 0 0 -1 0 1268.857)" gradientUnits="userSpaceOnUse">
                <stop offset="0" stop-color="#39b54a"/>
                <stop offset="1" stop-color="#00aeef"/>
            </linearGradient>
            <path d="M-124.1 157.9l334.5-152 488.7 354.7L1598.4-211" class="st8"/>
            <linearGradient id="SVGID_10_" x1="806.276" x2="668.891" y1="1612.837" y2="924.175" gradientTransform="matrix(1 0 0 -1 0 1268.857)" gradientUnits="userSpaceOnUse">
                <stop offset="0" stop-color="#39b54a"/>
                <stop offset="1" stop-color="#00aeef"/>
            </linearGradient>
            <path d="M-124 164L220.9 10.7l493.3 342.1 889.1-537.2" class="st9"/>
            <linearGradient id="SVGID_11_" x1="806.95" x2="676.516" y1="1587.205" y2="933.393" gradientTransform="matrix(1 0 0 -1 0 1268.857)" gradientUnits="userSpaceOnUse">
                <stop offset="0" stop-color="#39b54a"/>
                <stop offset="1" stop-color="#00aeef"/>
            </linearGradient>
            <path d="M-123.9 170L231.4 15.5l497.9 329.6 879-503" class="st10"/>
            <linearGradient id="SVGID_12_" x1="807.571" x2="681.875" y1="1561.461" y2="931.401" gradientTransform="matrix(1 0 0 -1 0 1268.857)" gradientUnits="userSpaceOnUse">
                <stop offset="0" stop-color="#39b54a"/>
                <stop offset="1" stop-color="#00aeef"/>
            </linearGradient>
            <path d="M-123.8 176.1L241.9 20.3l502.6 317 868.7-468.6" class="st11"/>
            <linearGradient id="SVGID_13_" x1="808.232" x2="686.303" y1="1535.729" y2="924.546" gradientTransform="matrix(1 0 0 -1 0 1268.857)" gradientUnits="userSpaceOnUse">
                <stop offset="0" stop-color="#39b54a"/>
                <stop offset="1" stop-color="#00aeef"/>
            </linearGradient>
            <path d="M-123.7 182.1l376.2-157 507.1 304.4 858.6-434.2" class="st12"/>
            <linearGradient id="SVGID_14_" x1="808.854" x2="690.671" y1="1509.988" y2="917.599" gradientTransform="matrix(1 0 0 -1 0 1268.857)" gradientUnits="userSpaceOnUse">
                <stop offset="0" stop-color="#39b54a"/>
                <stop offset="1" stop-color="#00aeef"/>
            </linearGradient>
            <path d="M-123.6 188.2L263 29.9l511.7 291.8 848.4-399.8" class="st13"/>
            <linearGradient id="SVGID_15_" x1="809.516" x2="695.098" y1="1484.256" y2="910.743" gradientTransform="matrix(1 0 0 -1 0 1268.857)" gradientUnits="userSpaceOnUse">
                <stop offset="0" stop-color="#39b54a"/>
                <stop offset="1" stop-color="#00aeef"/>
            </linearGradient>
            <path d="M-123.5 194.2L273.6 34.7l516.2 279.2 838.3-365.4" class="st14"/>
            <linearGradient id="SVGID_16_" x1="810.131" x2="699.471" y1="1458.505" y2="903.806" gradientTransform="matrix(1 0 0 -1 0 1268.857)" gradientUnits="userSpaceOnUse">
                <stop offset="0" stop-color="#39b54a"/>
                <stop offset="1" stop-color="#00aeef"/>
            </linearGradient>
            <path d="M-123.4 200.3L284.1 39.5 805 306.2l828-331.1" class="st15"/>
            <linearGradient id="SVGID_17_" x1="810.792" x2="703.897" y1="1432.773" y2="896.95" gradientTransform="matrix(1 0 0 -1 0 1268.857)" gradientUnits="userSpaceOnUse">
                <stop offset="0" stop-color="#39b54a"/>
                <stop offset="1" stop-color="#00aeef"/>
            </linearGradient>
            <path d="M-123.3 206.3l417.9-162 525.5 254.1L1638 1.7" class="st16"/>
            <linearGradient id="SVGID_18_" x1="811.473" x2="708.302" y1="1407.139" y2="889.997" gradientTransform="matrix(1 0 0 -1 0 1268.857)" gradientUnits="userSpaceOnUse">
                <stop offset="0" stop-color="#39b54a"/>
                <stop offset="1" stop-color="#00aeef"/>
            </linearGradient>
            <path d="M-123.2 212.4L305.2 49.1l530 241.5L1643 28.2" class="st17"/>
            <linearGradient id="SVGID_19_" x1="812.078" x2="712.682" y1="1381.391" y2="883.157" gradientTransform="matrix(1 0 0 -1 0 1268.857)" gradientUnits="userSpaceOnUse">
                <stop offset="0" stop-color="#39b54a"/>
                <stop offset="1" stop-color="#00aeef"/>
            </linearGradient>
            <path d="M-123.1 218.4L315.7 53.8l534.6 229 797.6-228" class="st18"/>
            <linearGradient id="SVGID_20_" x1="812.746" x2="717.098" y1="1355.654" y2="876.206" gradientTransform="matrix(1 0 0 -1 0 1268.857)" gradientUnits="userSpaceOnUse">
                <stop offset="0" stop-color="#39b54a"/>
                <stop offset="1" stop-color="#00aeef"/>
            </linearGradient>
            <path d="M-123 224.5L326.2 58.6 865.5 275l787.4-193.6" class="st19"/>
            <linearGradient id="SVGID_21_" x1="813.353" x2="721.475" y1="1329.909" y2="869.361" gradientTransform="matrix(1 0 0 -1 0 1268.857)" gradientUnits="userSpaceOnUse">
                <stop offset="0" stop-color="#39b54a"/>
                <stop offset="1" stop-color="#00aeef"/>
            </linearGradient>
            <path d="M-122.9 230.5L336.8 63.4l543.8 203.8L1657.8 108" class="st20"/>
            <linearGradient id="SVGID_22_" x1="814.021" x2="725.89" y1="1304.172" y2="862.409" gradientTransform="matrix(1 0 0 -1 0 1268.857)" gradientUnits="userSpaceOnUse">
                <stop offset="0" stop-color="#39b54a"/>
                <stop offset="1" stop-color="#00aeef"/>
            </linearGradient>
            <path d="M-122.8 236.6L347.3 68.2l548.4 191.3 767.1-124.9" class="st21"/>
            <linearGradient id="SVGID_23_" x1="814.627" x2="730.266" y1="1278.426" y2="855.565" gradientTransform="matrix(1 0 0 -1 0 1268.857)" gradientUnits="userSpaceOnUse">
                <stop offset="0" stop-color="#39b54a"/>
                <stop offset="1" stop-color="#00aeef"/>
            </linearGradient>
            <path d="M-122.7 242.6L357.8 73l553 178.7 756.9-90.5" class="st22"/>
            <linearGradient id="SVGID_24_" x1="815.295" x2="734.679" y1="1252.689" y2="848.61" gradientTransform="matrix(1 0 0 -1 0 1268.857)" gradientUnits="userSpaceOnUse">
                <stop offset="0" stop-color="#39b54a"/>
                <stop offset="1" stop-color="#00aeef"/>
            </linearGradient>
            <path d="M-122.6 248.7l491-170.9L926 243.9l746.7-56.1" class="st23"/>
            <linearGradient id="SVGID_25_" x1="815.959" x2="739.097" y1="1227.042" y2="841.765" gradientTransform="matrix(1 0 0 -1 0 1268.857)" gradientUnits="userSpaceOnUse">
                <stop offset="0" stop-color="#39b54a"/>
                <stop offset="1" stop-color="#00aeef"/>
            </linearGradient>
            <path d="M-122.5 254.7L378.9 82.6l562.2 153.5 736.6-21.8" class="st24"/>
            <linearGradient id="SVGID_26_" x1="816.572" x2="743.464" y1="1201.288" y2="834.826" gradientTransform="matrix(1 0 0 -1 0 1268.857)" gradientUnits="userSpaceOnUse">
                <stop offset="0" stop-color="#39b54a"/>
                <stop offset="1" stop-color="#00aeef"/>
            </linearGradient>
            <path d="M-122.4 260.8L389.4 87.4l566.8 140.9 726.4 12.6" class="st25"/>
            <linearGradient id="SVGID_27_" x1="817.226" x2="747.891" y1="1175.541" y2="827.978" gradientTransform="matrix(1 0 0 -1 0 1268.857)" gradientUnits="userSpaceOnUse">
                <stop offset="0" stop-color="#39b54a"/>
                <stop offset="1" stop-color="#00aeef"/>
            </linearGradient>
            <path d="M-122.3 266.8L400 92.2l571.3 128.4 716.3 46.9" class="st26"/>
            <linearGradient id="SVGID_28_" x1="817.89" x2="752.307" y1="1149.782" y2="821.041" gradientTransform="matrix(1 0 0 -1 0 1268.857)" gradientUnits="userSpaceOnUse">
                <stop offset="0" stop-color="#39b54a"/>
                <stop offset="1" stop-color="#00aeef"/>
            </linearGradient>
            <path d="M-122.1 272.9L410.5 97l575.9 115.8 706.1 81.3" class="st27"/>
            <linearGradient id="SVGID_29_" x1="818.546" x2="756.733" y1="1124.035" y2="814.191" gradientTransform="matrix(1 0 0 -1 0 1268.857)" gradientUnits="userSpaceOnUse">
                <stop offset="0" stop-color="#39b54a"/>
                <stop offset="1" stop-color="#00aeef"/>
            </linearGradient>
            <path d="M-122 278.9l543-177.1L1001.6 205l695.9 115.7" class="st28"/>
            <linearGradient id="SVGID_30_" x1="821.77" x2="761.158" y1="1111.064" y2="807.237" gradientTransform="matrix(1 0 0 -1 0 1268.857)" gradientUnits="userSpaceOnUse">
                <stop offset="0" stop-color="#39b54a"/>
                <stop offset="1" stop-color="#00aeef"/>
            </linearGradient>
            <path d="M-121.9 285l553.5-178.4 585.1 90.6 685.8 150.1" class="st29"/>
            <linearGradient id="SVGID_31_" x1="829.392" x2="765.558" y1="1120.344" y2="800.383" gradientTransform="matrix(1 0 0 -1 0 1268.857)" gradientUnits="userSpaceOnUse">
                <stop offset="0" stop-color="#39b54a"/>
                <stop offset="1" stop-color="#00aeef"/>
            </linearGradient>
            <path d="M-121.8 291l563.9-179.6 589.7 78 675.6 184.5" class="st30"/>
            <linearGradient id="SVGID_32_" x1="837.056" x2="769.993" y1="1129.613" y2="793.442" gradientTransform="matrix(1 0 0 -1 0 1268.857)" gradientUnits="userSpaceOnUse">
                <stop offset="0" stop-color="#39b54a"/>
                <stop offset="1" stop-color="#00aeef"/>
            </linearGradient>
            <path d="M-121.7 297.1l574.3-180.9 594.3 65.4 665.5 218.8" class="st31"/>
            <linearGradient id="SVGID_33_" x1="844.66" x2="774.392" y1="1138.818" y2="786.589" gradientTransform="matrix(1 0 0 -1 0 1268.857)" gradientUnits="userSpaceOnUse">
                <stop offset="0" stop-color="#39b54a"/>
                <stop offset="1" stop-color="#00aeef"/>
            </linearGradient>
            <path d="M-121.6 303.1L463.2 121l598.9 52.9L1717.3 427" class="st32"/>
            <linearGradient id="SVGID_34_" x1="852.335" x2="778.831" y1="1148.089" y2="779.636" gradientTransform="matrix(1 0 0 -1 0 1268.857)" gradientUnits="userSpaceOnUse">
                <stop offset="0" stop-color="#39b54a"/>
                <stop offset="1" stop-color="#00aeef"/>
            </linearGradient>
            <path d="M-121.5 309.2l595.2-183.4 603.5 40.3 645.1 287.5" class="st33"/>
            <linearGradient id="SVGID_35_" x1="859.953" x2="783.229" y1="1157.371" y2="772.787" gradientTransform="matrix(1 0 0 -1 0 1268.857)" gradientUnits="userSpaceOnUse">
                <stop offset="0" stop-color="#39b54a"/>
                <stop offset="1" stop-color="#00aeef"/>
            </linearGradient>
            <path d="M-121.4 315.2l605.6-184.6 608.1 27.7 634.9 321.9" class="st34"/>
            <linearGradient id="SVGID_36_" x1="867.625" x2="787.667" y1="1166.642" y2="765.836" gradientTransform="matrix(1 0 0 -1 0 1268.857)" gradientUnits="userSpaceOnUse">
                <stop offset="0" stop-color="#39b54a"/>
                <stop offset="1" stop-color="#00aeef"/>
            </linearGradient>
            <path d="M-121.3 321.3l616.1-185.9 612.6 15.1 624.8 356.3" class="st35"/>
        </g>
    </g>
    <linearGradient id="SVGID_37_" x1="800" x2="800" y1="446" y2="593.1" gradientTransform="translate(0 -446)" gradientUnits="userSpaceOnUse">
        <stop offset="0" stop-color="#29353a"/>
        <stop offset="1" stop-color="#29353a" stop-opacity="0"/>
    </linearGradient>
    <path d="M0 0h1600v147.1H0z" class="st36"/>
</svg>
